<?xml version="1.0" encoding="UTF-8" standalone="no"?>
<!DOCTYPE svg PUBLIC "-//W3C//DTD SVG 1.1//EN" "http://www.w3.org/Graphics/SVG/1.1/DTD/svg11.dtd">
<svg width="100%" height="100%" viewBox="0 0 704 143" version="1.1" xmlns="http://www.w3.org/2000/svg" xmlns:xlink="http://www.w3.org/1999/xlink" xml:space="preserve" xmlns:serif="http://www.serif.com/" style="fill-rule:evenodd;clip-rule:evenodd;stroke-linecap:round;stroke-linejoin:round;stroke-miterlimit:1.5;">
    <g transform="matrix(1,0,0,1,-234,-154)">
        <path d="M249.5,203.5C249.5,218.39 250.431,233.692 249.55,248.75C248.723,262.896 246.297,276.827 240,290" style="fill:none;stroke:black;stroke-width:12px;"/>
    </g>
    <g transform="matrix(1,0,0,1,-234,-154)">
        <path d="M250,200C256.135,200 276.557,199.959 280,200C287.337,200.087 294.287,200.143 300,200C302.435,199.939 301,222.189 301,227C301,229.315 302.385,250.651 300,250.619C290.26,250.489 279.657,250.619 274.667,250.619" style="fill:none;stroke:black;stroke-width:12px;"/>
    </g>
    <g transform="matrix(1,0,0,1,192,-154)">
        <path d="M249.5,203.5C249.5,232.378 253,262.805 240,290" style="fill:none;stroke:black;stroke-width:12px;"/>
    </g>
    <g transform="matrix(1,0,0,1,192,-154)">
        <path d="M250,200C256.135,200 273.231,199.754 276.667,199.982C283.004,200.402 293.287,199.143 300,200C302.416,200.308 301.333,224.189 301.333,229C301.333,231.315 302.385,250.032 300,250C290.26,249.87 277.991,250 275,250" style="fill:none;stroke:black;stroke-width:12px;"/>
    </g>
    <g transform="matrix(-1,-0.000570275,0.000570275,-1,883.602,296.501)">
        <path d="M249.5,203.5C249.5,232.378 253,262.805 240,290" style="fill:none;stroke:black;stroke-width:12px;"/>
    </g>
    <g transform="matrix(-1,-0.000570275,0.000570275,-1,883.602,296.501)">
        <path d="M249.5,199C255.635,199 268.565,198.772 272,199C278.337,199.42 293.787,198.143 300.5,199C302.916,199.308 301,222.189 301,227C301,229.315 302.385,251.032 300,251C290.26,250.87 277.991,251 275,251" style="fill:none;stroke:black;stroke-width:12px;"/>
    </g>
    <g transform="matrix(1,0,0,1,-234,-154)">
        <path d="M325.5,200C325,204.87 325.272,212.558 325.364,220C325.51,231.854 325,240.375 325,251" style="fill:none;stroke:black;stroke-width:12px;"/>
    </g>
    <g transform="matrix(1,0,0,1,-239,-148)">
        <path d="M330.5,174.5C330.5,171.801 331,174.655 331,173" style="fill:none;stroke:black;stroke-width:12px;"/>
    </g>
    <g transform="matrix(1,0,0,0.951696,-239,-148.189)">
        <path d="M385,204.045C372.011,204.57 359.848,203.202 356.5,204.5C354.749,205.179 355,226.62 355,230.155C355,233.768 353.916,254.916 355.5,256.5C357.172,258.172 399.37,257.634 405,257.634" style="fill:none;stroke:black;stroke-width:12.29px;"/>
    </g>
    <g transform="matrix(1,0,0,1,-245.5,-159.191)">
        <path d="M421.5,205.5C426.644,205.5 466.393,205.102 471.5,205.209C473.548,205.252 471.086,210.715 471.5,219.5C471.827,226.438 473.506,235.142 471.5,235.209C461.5,235.543 453.167,234.876 446.5,235.209C444.665,235.301 445.874,253.094 446.5,255.209C450.833,269.849 452.5,277.663 461.5,295.191" style="fill:none;stroke:black;stroke-width:12px;"/>
    </g>
    <g transform="matrix(1.42857,-2.44929e-22,-1.7495e-16,-2e-06,-426.143,96.0184)">
        <path d="M428.5,258.75C437.728,258.952 436.449,258.345 449.5,258.75" style="fill:none;stroke:black;stroke-width:11.88px;"/>
    </g>
    <g transform="matrix(1,0,0,1,-231.255,-156.89)">
        <path d="M505.157,233.503C508.493,233.503 523.334,234.325 529.49,233.503C530.982,233.303 529.902,203.503 529.49,203.503C525.644,203.503 479.42,202.632 479.49,203.503C480.058,210.552 479.372,221.362 479.49,223.503C479.824,229.548 477.323,253.384 482.49,253.503C498.244,253.865 523.147,253.503 529.49,253.503" style="fill:none;stroke:black;stroke-width:12px;"/>
    </g>
    <g transform="matrix(1,0,0,1,-227,-154)">
        <path d="M547.833,160C547.833,190.894 548.167,217.816 548.167,250.774" style="fill:none;stroke:black;stroke-width:12px;"/>
    </g>
    <g transform="matrix(1,0,0,1,-206.5,-146.5)">
        <path d="M718.5,212.5C718.5,218.083 718.766,229.365 718.5,242.5C718.472,243.894 764.769,242.5 768.5,242.5" style="fill:none;stroke:black;stroke-width:12px;"/>
    </g>
    <g transform="matrix(1,0,0,1,-206.5,-146.5)">
        <path d="M768.5,192.5C768.5,202.557 768.524,232.986 768.5,242.5C768.466,255.936 767.5,264.628 774.5,283.5" style="fill:none;stroke:black;stroke-width:12px;"/>
    </g>
    <g transform="matrix(1,0,0,1,-195.833,-153.685)">
        <path d="M852.5,250.304C852.68,238.971 852.687,236.598 852.5,230.304C852.312,223.971 849.951,200.421 852.5,200.304C872.34,199.397 877.981,199.685 893.3,199.685" style="fill:none;stroke:black;stroke-width:12px;"/>
    </g>
    <g transform="matrix(1,0,0,1,-206.301,-157.5)">
        <path d="M628.301,203.5C619.635,203.833 610.301,203.5 598.301,203.5L576.5,203.5C576.936,216.295 576.174,233.505 576.5,233.5C599.798,233.149 612.708,234.041 626.5,233.5C628.176,233.434 628.916,237.598 628.301,243.5C627.769,248.613 628.785,253.923 625.301,253.646C615.575,252.875 594.957,254.833 578.301,269.5" style="fill:none;stroke:black;stroke-width:12px;"/>
    </g>
    <g transform="matrix(1,0,0,1,-232,-155)">
        <path d="M311.76,183.235C311.76,183.402 315.794,176.643 318.75,171.938" style="fill:none;stroke:black;stroke-width:2px;"/>
    </g>
    <g transform="matrix(-0.451154,0.892446,-0.892446,-0.451154,400.971,-178.641)">
        <path d="M311.76,183.235C311.76,183.402 315.794,176.643 318.75,171.938" style="fill:none;stroke:black;stroke-width:2px;"/>
    </g>
</svg>
