<?xml version="1.0" encoding="UTF-8" standalone="no"?><!DOCTYPE svg PUBLIC "-//W3C//DTD SVG 1.1//EN" "http://www.w3.org/Graphics/SVG/1.1/DTD/svg11.dtd"><svg width="100%" height="100%" viewBox="0 0 142 110" version="1.1" xmlns="http://www.w3.org/2000/svg" xmlns:xlink="http://www.w3.org/1999/xlink" xml:space="preserve" xmlns:serif="http://www.serif.com/" style="fill-rule:evenodd;clip-rule:evenodd;stroke-linecap:round;stroke-linejoin:round;stroke-miterlimit:1.5;"><path d="M83.51,16.77c0,-6.209 -5.041,-11.25 -11.25,-11.25l-22.5,0c-6.209,0 -11.25,5.041 -11.25,11.25l0,22.5c0,6.21 5.041,11.25 11.25,11.25l22.5,0c6.209,0 11.25,-5.04 11.25,-11.25l0,-22.5Z" style="fill:#fff;stroke:#000;stroke-width:2px;"/><path d="M73.687,49.808c1.074,0.061 1.37,0.168 1.937,0.382c2.06,0.775 3.61,2.752 3.851,4.966c0.111,1.019 0.034,1.228 0.029,1.727c-0.052,4.07 -0.203,8.139 -0.337,12.207c0,0 1.074,0.006 2.512,0.057c0.69,0.024 8.105,-0.823 10.317,3.817c2.395,5.026 -0.697,23.709 -1.175,29.559c0,0 -1.429,7.035 -4.295,5.684c-4.718,-2.223 -4.147,-6.557 -4.151,-6.688c-0.233,-6.963 -0.908,-15.007 -1.212,-22.009c0,0 -0.548,0.329 -8.578,-0.852c-7.249,-1.067 -5.432,-7.247 -5.356,-9.786c0.168,-5.599 0.253,-7.259 0.281,-12.854c0,0 0.173,-2.833 1.707,-4.404c0.925,-0.947 2.168,-1.574 3.48,-1.753c0.635,-0.087 0.786,-0.054 0.99,-0.053Z" style="fill:#fff;fill-rule:nonzero;stroke:#000;stroke-width:2px;stroke-linecap:butt;stroke-miterlimit:1.41421;"/><path d="M110.557,23.536c2.273,0.023 4.457,0.114 6.349,1.7c0.946,0.793 0.343,0.084 1.097,1.231c2.231,3.392 1.402,8.161 1.459,13.064c0.024,2.088 0.037,4.92 0.037,4.92c5.556,-0.087 11.127,0.603 16.39,1.709c5.283,1.11 6.118,6.513 0.522,8.881c-1.593,0.674 -16.056,1.463 -22.374,1.494c-0.701,0 -1.734,-0.135 -1.734,-0.135c-1.609,-0.378 -1.343,-0.421 -1.806,-0.69c-0.366,-0.213 -0.71,-0.465 -1.023,-0.75c-2.14,-1.946 -1.915,-2.538 -1.964,-4.439c0,-4.974 -0.003,-9.954 -0.116,-14.932l0,-0.001c-5.673,0.186 -11.316,0.678 -17.064,0.716c-3.064,0.02 -7.042,-3.303 -6.184,-7.269c0.664,-3.064 3.804,-4.669 7.26,-4.75c6.383,-0.174 12.728,-0.777 19.151,-0.749Z" style="fill:#fff;fill-rule:nonzero;stroke:#000;stroke-width:2px;stroke-linecap:butt;stroke-miterlimit:1.41421;"/><path d="M18.545,20.173c5.156,0.012 10.307,0.126 15.472,0.132c0,0 6.23,1.603 5.985,6.311c-0.156,3.015 -2.833,5.613 -5.998,5.689c-6.838,-0.008 -13.732,-0.211 -20.613,-0.1l-0.274,0.006c0.23,10.992 0.424,34.717 -3.308,38.747c-3.754,4.053 -7.621,-1.802 -7.854,-4.96c-0.632,-13.039 -0.708,-26.26 -0.948,-39.317c0,0 -0.055,-0.168 0.141,-1.164l0.258,-0.87c0.41,-1.014 0.033,-0.341 0.722,-1.356l0.405,-0.513c0.264,-0.288 -0.669,-0.082 1.746,-1.383c3.938,-2.122 9.178,-1.227 14.266,-1.222Z" style="fill:#fff;fill-rule:nonzero;stroke:#000;stroke-width:2px;stroke-linecap:butt;stroke-miterlimit:1.41421;"/><path d="M50.181,48.808c0.792,0.044 -0.336,-0.755 2.457,0.601c1.743,0.847 2.213,1.84 2.213,1.84c0.503,0.719 0.952,1.952 0.952,1.952c0.244,0.961 0.182,0.697 0.22,1.463l-0.053,0.978c-0.06,0.362 0.016,0.213 -0.179,0.866c-0.503,1.681 -10.557,13.886 -13.551,19.059c0,0 1.987,19.582 3.156,24.293c0,0 1.544,4.58 -1.49,6.392c-1.849,1.104 -4.535,-0.093 -5.837,-3.619c-0.454,-1.232 -6.043,-17.353 -7.848,-25.713c0,0 -0.3,-1.422 -0.191,-2.512c0.466,-4.64 12.153,-19.004 14.554,-22.214c0,0 2.355,-3.389 5.597,-3.386Z" style="fill:#fff;fill-rule:nonzero;stroke:#000;stroke-width:2px;stroke-linecap:butt;stroke-miterlimit:1.41421;"/><path d="M72.274,1.02c8.177,0.052 15.571,6.956 15.735,15.548c0.048,7.572 0.001,15.144 0.001,22.717c-0.051,8.178 -7.054,15.573 -15.547,15.734c-7.573,0.048 -15.145,0.001 -22.717,0.001c-8.177,-0.051 -15.573,-7.054 -15.735,-15.547c-0.048,-7.572 -0.001,-15.145 -0.001,-22.717c0.052,-8.177 7.055,-15.573 15.548,-15.734c7.572,-0.048 15.144,-0.002 22.716,-0.002Zm-22.5,9c-3.525,0.023 -6.694,3.007 -6.763,6.662c-0.048,7.559 -0.048,15.118 0,22.677c0.066,3.477 3.057,6.592 6.661,6.661c7.559,0.048 15.118,0.048 22.676,0c3.474,-0.066 6.593,-3.057 6.662,-6.661c0.047,-7.559 0.047,-15.118 0,-22.677c-0.067,-3.475 -3.058,-6.592 -6.662,-6.661c-7.524,-0.048 -15.049,-0.001 -22.574,-0.001Z" style="fill:#fff;fill-rule:nonzero;stroke:#000;stroke-width:2px;stroke-linecap:butt;stroke-miterlimit:1.41421;"/><path d="M68.014,19.864c0,-1.914 -1.555,-3.469 -3.469,-3.469l-7.07,0c-1.914,0 -3.468,1.555 -3.468,3.469l0,6.938c0,1.914 1.554,3.468 3.468,3.468l7.07,0c1.914,0 3.469,-1.554 3.469,-3.468l0,-6.938Z"/></svg>