<?xml version="1.0" encoding="UTF-8" standalone="no"?>
<!DOCTYPE svg PUBLIC "-//W3C//DTD SVG 1.1//EN" "http://www.w3.org/Graphics/SVG/1.1/DTD/svg11.dtd">
<svg width="100%" height="100%" viewBox="0 0 880 179" version="1.1" xmlns="http://www.w3.org/2000/svg" xmlns:xlink="http://www.w3.org/1999/xlink" xml:space="preserve" xmlns:serif="http://www.serif.com/" style="fill-rule:evenodd;clip-rule:evenodd;stroke-linecap:round;stroke-linejoin:round;stroke-miterlimit:1.5;">
    <g transform="matrix(1,0,0,1,-57.4667,-136.057)">
        <path d="M249.5,203.5C249.5,218.39 250.431,233.692 249.55,248.75C248.723,262.896 246.297,276.827 240,290" style="fill:none;stroke:black;stroke-width:8px;"/>
    </g>
    <g transform="matrix(1,0,0,1,-57.4667,-136.057)">
        <path d="M250,200C256.135,200 276.557,199.959 280,200C287.337,200.087 294.287,200.143 300,200C302.435,199.939 301,222.189 301,227C301,229.315 302.385,250.651 300,250.619C290.26,250.489 279.657,250.619 274.667,250.619" style="fill:none;stroke:black;stroke-width:8px;"/>
    </g>
    <g transform="matrix(1,0,0,1,368.533,-136.057)">
        <path d="M249.5,203.5C249.5,232.378 253,262.805 240,290" style="fill:none;stroke:black;stroke-width:8px;"/>
    </g>
    <g transform="matrix(1,0,0,1,368.533,-136.057)">
        <path d="M250,200C256.135,200 273.231,199.754 276.667,199.982C283.004,200.402 293.287,199.143 300,200C302.416,200.308 301.333,224.189 301.333,229C301.333,231.315 302.385,250.032 300,250C290.26,249.87 277.991,250 275,250" style="fill:none;stroke:black;stroke-width:8px;"/>
    </g>
    <g transform="matrix(-1,-0.000570275,0.000570275,-1,1060.14,314.443)">
        <path d="M249.5,203.5C249.5,232.378 253,262.805 240,290" style="fill:none;stroke:black;stroke-width:8px;"/>
    </g>
    <g transform="matrix(-1,-0.000570275,0.000570275,-1,1060.14,314.443)">
        <path d="M249.5,199C255.635,199 268.565,198.772 272,199C278.337,199.42 293.787,198.143 300.5,199C302.916,199.308 301,222.189 301,227C301,229.315 302.385,251.032 300,251C290.26,250.87 277.991,251 275,251" style="fill:none;stroke:black;stroke-width:8px;"/>
    </g>
    <g transform="matrix(1,0,0,1,-57.4667,-136.057)">
        <path d="M325.5,200C325,204.87 325.272,212.558 325.364,220C325.51,231.854 325,240.375 325,251" style="fill:none;stroke:black;stroke-width:8px;"/>
    </g>
    <g transform="matrix(1,0,0,1,-62.4667,-130.057)">
        <path d="M330.5,174.5C330.5,171.801 331,174.655 331,173" style="fill:none;stroke:black;stroke-width:8px;"/>
    </g>
    <g transform="matrix(1,0,0,0.951696,-62.4667,-130.246)">
        <path d="M385,204.045C372.011,204.57 359.848,203.202 356.5,204.5C354.749,205.179 355,226.62 355,230.155C355,233.768 353.916,254.916 355.5,256.5C357.172,258.172 399.37,257.634 405,257.634" style="fill:none;stroke:black;stroke-width:8.2px;"/>
    </g>
    <g transform="matrix(1,0,0,1,-68.9667,-141.248)">
        <path d="M421.5,205.5C426.644,205.5 466.393,205.102 471.5,205.209C473.548,205.252 471.086,210.715 471.5,219.5C471.827,226.438 473.506,235.142 471.5,235.209C461.5,235.543 453.167,234.876 446.5,235.209C444.665,235.301 445.874,253.094 446.5,255.209C450.833,269.849 452.5,277.663 461.5,295.191" style="fill:none;stroke:black;stroke-width:8px;"/>
    </g>
    <g transform="matrix(1.42857,-2.44929e-22,-1.7495e-16,-2e-06,-249.61,113.961)">
        <path d="M428.5,258.75C437.728,258.952 436.449,258.345 449.5,258.75" style="fill:none;stroke:black;stroke-width:7.92px;"/>
    </g>
    <g transform="matrix(1,0,0,1,-54.7214,-138.947)">
        <path d="M505.157,233.503C508.493,233.503 523.334,234.325 529.49,233.503C530.982,233.303 529.902,203.503 529.49,203.503C525.644,203.503 479.42,202.632 479.49,203.503C480.058,210.552 479.372,221.362 479.49,223.503C479.824,229.548 477.323,253.384 482.49,253.503C498.244,253.865 523.147,253.503 529.49,253.503" style="fill:none;stroke:black;stroke-width:8px;"/>
    </g>
    <g transform="matrix(1,0,0,1,-50.4667,-136.057)">
        <path d="M547.833,160C547.833,190.894 548.167,217.816 548.167,250.774" style="fill:none;stroke:black;stroke-width:8px;"/>
    </g>
    <g transform="matrix(1,0,0,1,-29.9667,-128.557)">
        <path d="M718.5,212.5C718.5,218.083 718.766,229.365 718.5,242.5C718.472,243.894 764.769,242.5 768.5,242.5" style="fill:none;stroke:black;stroke-width:8px;"/>
    </g>
    <g transform="matrix(1,0,0,1,-29.9667,-128.557)">
        <path d="M768.5,192.5C768.5,202.557 768.524,232.986 768.5,242.5C768.466,255.936 767.5,264.628 774.5,283.5" style="fill:none;stroke:black;stroke-width:8px;"/>
    </g>
    <g transform="matrix(1,0,0,1,-19.3,-135.742)">
        <path d="M852.5,250.304C852.68,238.971 852.687,236.598 852.5,230.304C852.312,223.971 849.951,200.421 852.5,200.304C872.34,199.397 877.981,199.685 893.3,199.685" style="fill:none;stroke:black;stroke-width:8px;"/>
    </g>
    <g transform="matrix(1,0,0,1,-29.768,-139.557)">
        <path d="M628.301,203.5C619.635,203.833 610.301,203.5 598.301,203.5L576.5,203.5C576.936,216.295 576.174,233.505 576.5,233.5C599.798,233.149 612.708,234.041 626.5,233.5C628.176,233.434 628.916,237.598 628.301,243.5C627.769,248.613 628.785,253.923 625.301,253.646C615.575,252.875 594.957,254.833 578.301,269.5" style="fill:none;stroke:black;stroke-width:8px;"/>
    </g>
    <g transform="matrix(1,0,0,1,-57.4667,-139.057)">
        <path d="M311.76,183.235C311.76,183.402 315.794,176.643 318.75,171.938" style="fill:none;stroke:black;stroke-width:4px;"/>
    </g>
    <g transform="matrix(-0.451154,0.892446,-0.892446,-0.451154,579.504,-162.698)">
        <path d="M311.76,183.235C311.76,183.402 315.794,176.643 318.75,171.938" style="fill:none;stroke:black;stroke-width:4px;"/>
    </g>
    <g transform="matrix(0.673375,0,0,0.673375,-663.113,-123.68)">
        <path d="M1100,295C1100,286.721 1093.28,280 1085,280L1055,280C1046.72,280 1040,286.721 1040,295L1040,325C1040,333.279 1046.72,340 1055,340L1085,340C1093.28,340 1100,333.279 1100,325L1100,295Z" style="fill:white;stroke:black;stroke-width:3.96px;"/>
    </g>
    <g transform="matrix(0.673375,0,0,0.673375,-676.58,-96.7453)">
        <path d="M1106.9,299.05C1108.33,299.131 1108.73,299.274 1109.49,299.559C1112.23,300.593 1114.3,303.229 1114.62,306.181C1114.77,307.539 1114.66,307.818 1114.66,308.483C1114.59,313.91 1114.39,319.335 1114.21,324.759C1114.21,324.759 1115.64,324.768 1117.56,324.835C1118.48,324.868 1128.37,323.737 1131.31,329.924C1134.51,336.626 1130.38,361.536 1129.75,369.337C1129.75,369.337 1127.84,378.716 1124.02,376.916C1117.73,373.951 1118.49,368.173 1118.49,367.998C1118.17,358.714 1117.28,347.988 1116.87,338.653C1116.87,338.653 1116.14,339.092 1105.43,337.516C1095.77,336.094 1098.19,327.854 1098.29,324.469C1098.52,317.003 1098.63,314.791 1098.67,307.33C1098.67,307.33 1098.9,303.552 1100.94,301.458C1102.17,300.195 1103.83,299.36 1105.58,299.12C1106.43,299.004 1106.63,299.049 1106.9,299.05Z" style="fill:white;fill-rule:nonzero;stroke:black;stroke-width:3.96px;stroke-linecap:butt;stroke-miterlimit:1.41421;"/>
    </g>
    <g transform="matrix(0.673375,0,0,0.673375,-676.58,-96.7453)">
        <path d="M1156.06,264.021C1159.09,264.051 1162.01,264.173 1164.53,266.287C1165.79,267.345 1164.99,266.399 1165.99,267.929C1168.96,272.451 1167.86,278.81 1167.93,285.348C1167.97,288.132 1167.99,291.907 1167.99,291.907C1175.39,291.792 1182.82,292.712 1189.84,294.186C1196.88,295.666 1198,302.871 1190.53,306.027C1188.41,306.926 1169.13,307.978 1160.7,308.019C1159.77,308.019 1158.39,307.839 1158.39,307.839C1156.25,307.336 1156.6,307.278 1155.98,306.919C1155.49,306.635 1155.04,306.3 1154.62,305.92C1151.77,303.325 1152.07,302.535 1152,300C1152,293.369 1152,286.728 1151.85,280.091L1151.85,280.091C1144.28,280.338 1136.76,280.994 1129.09,281.045C1125.01,281.072 1119.7,276.64 1120.85,271.353C1121.73,267.267 1125.92,265.127 1130.53,265.019C1139.04,264.788 1147.5,263.983 1156.06,264.021Z" style="fill:white;fill-rule:nonzero;stroke:black;stroke-width:3.96px;stroke-linecap:butt;stroke-miterlimit:1.41421;"/>
    </g>
    <g transform="matrix(0.673375,0,0,0.673375,-676.58,-96.7453)">
        <path d="M1033.38,259.537C1040.25,259.553 1047.12,259.705 1054.01,259.713C1054.01,259.713 1062.32,261.85 1061.99,268.127C1061.78,272.147 1058.21,275.611 1053.99,275.713C1044.87,275.703 1035.68,275.432 1026.51,275.58L1026.14,275.587C1026.45,290.244 1026.71,321.877 1021.73,327.25C1016.73,332.654 1011.57,324.848 1011.26,320.637C1010.42,303.251 1010.32,285.624 1010,268.214C1010,268.214 1009.92,267.99 1010.18,266.662L1010.53,265.502C1011.08,264.15 1010.57,265.048 1011.49,263.694L1012.03,263.011C1012.38,262.626 1011.14,262.9 1014.36,261.166C1019.61,258.337 1026.6,259.53 1033.38,259.537Z" style="fill:white;fill-rule:nonzero;stroke:black;stroke-width:3.96px;stroke-linecap:butt;stroke-miterlimit:1.41421;"/>
    </g>
    <g transform="matrix(0.673375,0,0,0.673375,-676.58,-96.7453)">
        <path d="M1075.56,297.716C1076.62,297.775 1075.11,296.709 1078.84,298.518C1081.16,299.647 1081.79,300.972 1081.79,300.972C1082.46,301.931 1083.06,303.574 1083.06,303.574C1083.38,304.856 1083.3,304.504 1083.35,305.524L1083.28,306.829C1083.2,307.312 1083.3,307.113 1083.04,307.984C1082.37,310.224 1068.97,326.499 1064.97,333.395C1064.97,333.395 1067.62,359.504 1069.18,365.785C1069.18,365.785 1071.24,371.893 1067.19,374.309C1064.73,375.781 1061.15,374.185 1059.41,369.483C1058.81,367.841 1051.36,346.346 1048.95,335.199C1048.95,335.199 1048.55,333.303 1048.69,331.85C1049.32,325.663 1064.9,306.511 1068.1,302.231C1068.1,302.231 1071.24,297.713 1075.56,297.716Z" style="fill:white;fill-rule:nonzero;stroke:black;stroke-width:3.96px;stroke-linecap:butt;stroke-miterlimit:1.41421;"/>
    </g>
    <g transform="matrix(0.673375,0,0,0.673375,-663.113,-123.68)">
        <path d="M1085.02,274C1095.92,274.069 1105.78,283.274 1106,294.73C1106.06,304.826 1106,314.923 1106,325.019C1105.93,335.924 1096.59,345.783 1085.27,345.998C1075.17,346.063 1065.08,346 1054.98,346C1044.08,345.931 1034.22,336.594 1034,325.27C1033.94,315.174 1034,305.077 1034,294.981C1034.07,284.078 1043.41,274.217 1054.73,274.002C1064.83,273.938 1074.92,274 1085.02,274ZM1055.02,286C1050.32,286.03 1046.09,290.009 1046,294.882C1045.94,304.961 1045.94,315.039 1046,325.118C1046.09,329.754 1050.08,333.908 1054.88,333.999C1064.96,334.063 1075.04,334.063 1085.12,333.999C1089.75,333.911 1093.91,329.923 1094,325.118C1094.06,315.039 1094.06,304.961 1094,294.882C1093.91,290.248 1089.92,286.092 1085.12,286.001C1075.09,285.937 1065.05,286 1055.02,286Z" style="fill:white;fill-rule:nonzero;stroke:black;stroke-width:3.96px;stroke-linecap:butt;stroke-miterlimit:1.41421;"/>
    </g>
    <g transform="matrix(0.673375,0,0,0.673375,3.55565,60.8059)">
        <path d="M89.297,25.152C89.297,22.6 87.224,20.527 84.672,20.527L75.246,20.527C72.693,20.527 70.621,22.6 70.621,25.152L70.621,34.402C70.621,36.955 72.693,39.027 75.246,39.027L84.672,39.027C87.224,39.027 89.297,36.955 89.297,34.402L89.297,25.152Z" style="stroke:black;stroke-width:3.96px;stroke-linecap:butt;stroke-miterlimit:2;"/>
    </g>
</svg>
